<svg width="330" height="95" viewBox="0 0 330 95" fill="none" xmlns="http://www.w3.org/2000/svg">
<path d="M285.532 94.2857H44.4682C19.9058 94.2857 0 74.4423 0 49.957V49.0564C0 24.5818 19.9058 4.7384 44.4682 4.7384H285.532C310.094 4.7384 330 24.5818 330 49.0672V49.9677C329.989 74.4423 310.083 94.2857 285.532 94.2857Z" fill="#508853"/>
<path d="M285.532 89.5473H44.4682C19.9058 89.5473 0 69.7039 0 45.2186V44.318C0 19.8434 19.9058 0 44.4682 0H285.532C310.094 0 330 19.8434 330 44.3288V45.2293C329.989 69.7039 310.083 89.5473 285.532 89.5473Z" fill="#65BD65"/>
</svg>
